<mxfile host="65bd71144e">
    <diagram id="S2GBqUxlJcy70CZUxzkA" name="Page-1">
        <mxGraphModel dx="969" dy="727" grid="1" gridSize="10" guides="1" tooltips="1" connect="1" arrows="1" fold="1" page="1" pageScale="1" pageWidth="827" pageHeight="1169" math="0" shadow="0">
            <root>
                <mxCell id="0"/>
                <mxCell id="1" parent="0"/>
                <mxCell id="2" value="APP&lt;br&gt;&lt;br&gt;Smart component&lt;br&gt;State: Smart&lt;br&gt;Behaviour: Renders all of the components, passing props down&lt;br&gt;random search" style="rounded=1;whiteSpace=wrap;html=1;" vertex="1" parent="1">
                    <mxGeometry x="330" y="20" width="190" height="180" as="geometry"/>
                </mxCell>
                <mxCell id="3" value="Search facility by cocktail name&lt;br&gt;Behaviour: onclick it sends text from input field to be sent to the API" style="rounded=0;whiteSpace=wrap;html=1;" vertex="1" parent="1">
                    <mxGeometry x="180" y="250" width="120" height="120" as="geometry"/>
                </mxCell>
                <mxCell id="4" value="Random cocktail generator button&lt;br&gt;Behaviour: records user click" style="rounded=0;whiteSpace=wrap;html=1;" vertex="1" parent="1">
                    <mxGeometry x="350" y="240" width="150" height="90" as="geometry"/>
                </mxCell>
                <mxCell id="5" value="User input field (for search by name)&lt;br&gt;Behaviour: records user text input" style="rounded=0;whiteSpace=wrap;html=1;" vertex="1" parent="1">
                    <mxGeometry x="50" y="250" width="120" height="120" as="geometry"/>
                </mxCell>
                <mxCell id="6" value="Display cocktail name, image, ingredients and recipe&lt;br&gt;Behaviour: displays the image etc returned from the API" style="rounded=0;whiteSpace=wrap;html=1;" vertex="1" parent="1">
                    <mxGeometry x="350" y="350" width="150" height="160" as="geometry"/>
                </mxCell>
                <mxCell id="7" value="Button to place order" style="rounded=0;whiteSpace=wrap;html=1;" vertex="1" parent="1">
                    <mxGeometry x="560" y="470" width="120" height="60" as="geometry"/>
                </mxCell>
                <mxCell id="8" value="Comments list (to-do list)" style="rounded=0;whiteSpace=wrap;html=1;" vertex="1" parent="1">
                    <mxGeometry x="365" y="570" width="120" height="60" as="geometry"/>
                </mxCell>
                <mxCell id="9" value="" style="endArrow=classic;html=1;exitX=0.5;exitY=1;exitDx=0;exitDy=0;entryX=0.5;entryY=0;entryDx=0;entryDy=0;" edge="1" parent="1" source="2" target="4">
                    <mxGeometry width="50" height="50" relative="1" as="geometry">
                        <mxPoint x="380" y="290" as="sourcePoint"/>
                        <mxPoint x="425" y="230" as="targetPoint"/>
                    </mxGeometry>
                </mxCell>
            </root>
        </mxGraphModel>
    </diagram>
</mxfile>